<svg xmlns="http://www.w3.org/2000/svg" viewBox="0 0 320 80">
  <title>재판 통과</title>
  <rect width="320" height="80" fill="#1b1815"/>
  <!-- 멀리 다음 관문과 희미한 빛, 그리로 이어지는 길 -->
  <path d="M0 44 Q80 30 160 40 Q240 28 320 42 L320 80 L0 80 Z" fill="#26211c"/>
  <circle cx="258" cy="24" r="20" fill="#e8dcc0" opacity="0.04"/>
  <circle cx="258" cy="24" r="13" fill="#e8dcc0" opacity="0.06"/>
  <rect x="246.8" y="20" width="2.4" height="16" fill="#0d0b09"/>
  <rect x="266.8" y="20" width="2.4" height="16" fill="#0d0b09"/>
  <path d="M242 20 Q248.4 20.8 250 16.8 L266 16.8 Q267.6 20.8 274 20 L270.8 22.4 L245.2 22.4 Z" fill="#0d0b09"/>
  <path d="M246 80 L256 36 L260 36 L272 80 Z" fill="#332d26"/>
  <!-- 펼친 명부 -->
  <path d="M50 28 L110 22 L170 28 L170 70 L110 64 L50 70 Z" fill="#e8dcc0" opacity="0.85"/>
  <path d="M110 22 V64" stroke="#a89c84" stroke-width="1"/>
  <g stroke="#a89c84" stroke-width="1.2" stroke-linecap="round">
    <path d="M60 35 H98"/><path d="M60 42 H94"/><path d="M60 49 H100"/><path d="M60 56 H86"/>
    <path d="M122 35 H160"/><path d="M122 42 H152"/>
  </g>
  <!-- 찍힌 붉은 도장 -->
  <g transform="rotate(-6 148 56)">
    <rect x="136" y="46" width="24" height="20" rx="2" fill="#c0392b"/>
    <text x="148" y="61" text-anchor="middle" font-size="13" fill="#e8dcc0" font-family="serif">通</text>
  </g>
  <ellipse cx="160" cy="74" rx="150" ry="3.5" fill="#4a4338" opacity="0.4"/>
</svg>
